<?xml version="1.0" encoding="UTF-8" standalone="no"?>
<!DOCTYPE svg PUBLIC "-//W3C//DTD SVG 1.1//EN"
 "http://www.w3.org/Graphics/SVG/1.1/DTD/svg11.dtd">
<!-- Generated by graphviz version 2.38.0 (20140413.2041)
 -->
<!-- Title: controllers_diagram Pages: 1 -->
<svg width="1256pt" height="1217pt"
 viewBox="0.00 0.00 1255.64 1216.97" xmlns="http://www.w3.org/2000/svg" xmlns:xlink="http://www.w3.org/1999/xlink">
<g id="graph0" class="graph" transform="scale(1 1) rotate(0) translate(661.636 554.571)">
<title>controllers_diagram</title>
<polygon fill="none" stroke="none" points="-661.636,662.397 -661.636,-554.571 594,-554.571 594,662.397 -661.636,662.397"/>
<!-- _diagram_info -->
<g id="node1" class="node"><title>_diagram_info</title>
<text text-anchor="start" x="384" y="-251.6" font-family="Times,serif" font-size="13.00">Controllers diagram</text>
<text text-anchor="start" x="384" y="-237.6" font-family="Times,serif" font-size="13.00">Date: May 30 2018 &#45; 20:12</text>
<text text-anchor="start" x="384" y="-223.6" font-family="Times,serif" font-size="13.00">Migration version: 20180530081635</text>
<text text-anchor="start" x="384" y="-209.6" font-family="Times,serif" font-size="13.00">Generated by RailRoady 1.5.3</text>
<text text-anchor="start" x="384" y="-195.6" font-family="Times,serif" font-size="13.00">http://railroady.prestonlee.com</text>
</g>
<!-- InstitutionsController -->
<g id="node2" class="node"><title>InstitutionsController</title>
<path fill="none" stroke="black" d="M-638.941,298.901C-638.941,298.901 -529.941,298.901 -529.941,298.901 -523.941,298.901 -517.941,292.901 -517.941,286.901 -517.941,286.901 -517.941,52.9007 -517.941,52.9007 -517.941,46.9007 -523.941,40.9007 -529.941,40.9007 -529.941,40.9007 -638.941,40.9007 -638.941,40.9007 -644.941,40.9007 -650.941,46.9007 -650.941,52.9007 -650.941,52.9007 -650.941,286.901 -650.941,286.901 -650.941,292.901 -644.941,298.901 -638.941,298.901"/>
<text text-anchor="middle" x="-584.441" y="56.1007" font-family="Times,serif" font-size="14.00">InstitutionsController</text>
<polyline fill="none" stroke="black" points="-650.941,63.9007 -517.941,63.9007 "/>
<text text-anchor="start" x="-642.941" y="79.1007" font-family="Times,serif" font-size="14.00">create</text>
<text text-anchor="start" x="-642.941" y="94.1007" font-family="Times,serif" font-size="14.00">destroy</text>
<text text-anchor="start" x="-642.941" y="109.101" font-family="Times,serif" font-size="14.00">edit</text>
<text text-anchor="start" x="-642.941" y="124.101" font-family="Times,serif" font-size="14.00">index</text>
<text text-anchor="start" x="-642.941" y="139.101" font-family="Times,serif" font-size="14.00">new</text>
<text text-anchor="start" x="-642.941" y="154.101" font-family="Times,serif" font-size="14.00">rating</text>
<text text-anchor="start" x="-642.941" y="169.101" font-family="Times,serif" font-size="14.00">show</text>
<text text-anchor="start" x="-642.941" y="184.101" font-family="Times,serif" font-size="14.00">update</text>
<polyline fill="none" stroke="black" points="-650.941,191.901 -517.941,191.901 "/>
<polyline fill="none" stroke="black" points="-650.941,215.901 -517.941,215.901 "/>
<text text-anchor="start" x="-642.941" y="231.101" font-family="Times,serif" font-size="14.00">_layout</text>
<text text-anchor="start" x="-642.941" y="246.101" font-family="Times,serif" font-size="14.00">get_institution</text>
<text text-anchor="start" x="-642.941" y="261.101" font-family="Times,serif" font-size="14.00">institution_params</text>
<text text-anchor="start" x="-642.941" y="276.101" font-family="Times,serif" font-size="14.00">ratign_params</text>
<text text-anchor="start" x="-642.941" y="291.101" font-family="Times,serif" font-size="14.00">workTime_params</text>
</g>
<!-- InstitutionCommentsController -->
<g id="node3" class="node"><title>InstitutionCommentsController</title>
<path fill="none" stroke="black" d="M-300.254,-66.3238C-300.254,-66.3238 -136.254,-66.3238 -136.254,-66.3238 -130.254,-66.3238 -124.254,-72.3238 -124.254,-78.3238 -124.254,-78.3238 -124.254,-207.324 -124.254,-207.324 -124.254,-213.324 -130.254,-219.324 -136.254,-219.324 -136.254,-219.324 -300.254,-219.324 -300.254,-219.324 -306.254,-219.324 -312.254,-213.324 -312.254,-207.324 -312.254,-207.324 -312.254,-78.3238 -312.254,-78.3238 -312.254,-72.3238 -306.254,-66.3238 -300.254,-66.3238"/>
<text text-anchor="middle" x="-218.254" y="-204.124" font-family="Times,serif" font-size="14.00">InstitutionCommentsController</text>
<polyline fill="none" stroke="black" points="-312.254,-196.324 -124.254,-196.324 "/>
<text text-anchor="start" x="-304.254" y="-181.124" font-family="Times,serif" font-size="14.00">create</text>
<text text-anchor="start" x="-304.254" y="-166.124" font-family="Times,serif" font-size="14.00">destroy</text>
<text text-anchor="start" x="-304.254" y="-151.124" font-family="Times,serif" font-size="14.00">update</text>
<polyline fill="none" stroke="black" points="-312.254,-143.324 -124.254,-143.324 "/>
<polyline fill="none" stroke="black" points="-312.254,-119.324 -124.254,-119.324 "/>
<text text-anchor="start" x="-304.254" y="-104.124" font-family="Times,serif" font-size="14.00">_layout</text>
<text text-anchor="start" x="-304.254" y="-89.1238" font-family="Times,serif" font-size="14.00">get_institution_comment</text>
<text text-anchor="start" x="-304.254" y="-74.1238" font-family="Times,serif" font-size="14.00">institution_comment_params</text>
</g>
<!-- PagesController -->
<g id="node4" class="node"><title>PagesController</title>
<path fill="none" stroke="black" d="M-275.706,518.644C-275.706,518.644 -195.706,518.644 -195.706,518.644 -189.706,518.644 -183.706,512.644 -183.706,506.644 -183.706,506.644 -183.706,422.644 -183.706,422.644 -183.706,416.644 -189.706,410.644 -195.706,410.644 -195.706,410.644 -275.706,410.644 -275.706,410.644 -281.706,410.644 -287.706,416.644 -287.706,422.644 -287.706,422.644 -287.706,506.644 -287.706,506.644 -287.706,512.644 -281.706,518.644 -275.706,518.644"/>
<text text-anchor="middle" x="-235.706" y="425.844" font-family="Times,serif" font-size="14.00">PagesController</text>
<polyline fill="none" stroke="black" points="-287.706,433.644 -183.706,433.644 "/>
<text text-anchor="start" x="-279.706" y="448.844" font-family="Times,serif" font-size="14.00">about</text>
<text text-anchor="start" x="-279.706" y="463.844" font-family="Times,serif" font-size="14.00">index</text>
<polyline fill="none" stroke="black" points="-287.706,471.644 -183.706,471.644 "/>
<polyline fill="none" stroke="black" points="-287.706,495.644 -183.706,495.644 "/>
<text text-anchor="start" x="-279.706" y="510.844" font-family="Times,serif" font-size="14.00">_layout</text>
</g>
<!-- VotesController -->
<g id="node5" class="node"><title>VotesController</title>
<path fill="none" stroke="black" d="M-616.537,-367.828C-616.537,-367.828 -536.537,-367.828 -536.537,-367.828 -530.537,-367.828 -524.537,-373.828 -524.537,-379.828 -524.537,-379.828 -524.537,-478.828 -524.537,-478.828 -524.537,-484.828 -530.537,-490.828 -536.537,-490.828 -536.537,-490.828 -616.537,-490.828 -616.537,-490.828 -622.537,-490.828 -628.537,-484.828 -628.537,-478.828 -628.537,-478.828 -628.537,-379.828 -628.537,-379.828 -628.537,-373.828 -622.537,-367.828 -616.537,-367.828"/>
<text text-anchor="middle" x="-576.537" y="-475.628" font-family="Times,serif" font-size="14.00">VotesController</text>
<polyline fill="none" stroke="black" points="-628.537,-467.828 -524.537,-467.828 "/>
<text text-anchor="start" x="-620.537" y="-452.628" font-family="Times,serif" font-size="14.00">negativ_vote</text>
<text text-anchor="start" x="-620.537" y="-437.628" font-family="Times,serif" font-size="14.00">positiv_vote</text>
<polyline fill="none" stroke="black" points="-628.537,-429.828 -524.537,-429.828 "/>
<polyline fill="none" stroke="black" points="-628.537,-405.828 -524.537,-405.828 "/>
<text text-anchor="start" x="-620.537" y="-390.628" font-family="Times,serif" font-size="14.00">_layout</text>
<text text-anchor="start" x="-620.537" y="-375.628" font-family="Times,serif" font-size="14.00">get_object</text>
</g>
<!-- ApplicationController -->
<g id="node6" class="node"><title>ApplicationController</title>
<path fill="none" stroke="black" d="M-305.626,180.165C-305.626,180.165 -193.626,180.165 -193.626,180.165 -187.626,180.165 -181.626,174.165 -181.626,168.165 -181.626,168.165 -181.626,98.165 -181.626,98.165 -181.626,92.165 -187.626,86.165 -193.626,86.165 -193.626,86.165 -305.626,86.165 -305.626,86.165 -311.626,86.165 -317.626,92.165 -317.626,98.165 -317.626,98.165 -317.626,168.165 -317.626,168.165 -317.626,174.165 -311.626,180.165 -305.626,180.165"/>
<text text-anchor="middle" x="-249.626" y="101.365" font-family="Times,serif" font-size="14.00">ApplicationController</text>
<polyline fill="none" stroke="black" points="-317.626,109.165 -181.626,109.165 "/>
<polyline fill="none" stroke="black" points="-317.626,133.165 -181.626,133.165 "/>
<polyline fill="none" stroke="black" points="-317.626,157.165 -181.626,157.165 "/>
<text text-anchor="start" x="-309.626" y="172.365" font-family="Times,serif" font-size="14.00">_layout</text>
</g>
<!-- ApplicationController&#45;&gt;InstitutionsController -->
<g id="edge1" class="edge"><title>ApplicationController&#45;&gt;InstitutionsController</title>
<path fill="none" stroke="black" d="M-317.784,140.643C-376.196,147.052 -459.839,156.229 -517.807,162.59"/>
</g>
<!-- ApplicationController&#45;&gt;InstitutionCommentsController -->
<g id="edge2" class="edge"><title>ApplicationController&#45;&gt;InstitutionCommentsController</title>
<path fill="none" stroke="black" d="M-244.269,86.0344C-239.526,44.3123 -232.516,-17.3589 -226.967,-66.1725"/>
</g>
<!-- ApplicationController&#45;&gt;PagesController -->
<g id="edge3" class="edge"><title>ApplicationController&#45;&gt;PagesController</title>
<path fill="none" stroke="black" d="M-247.646,180.306C-245.094,241.078 -240.666,346.524 -237.979,410.512"/>
</g>
<!-- ApplicationController&#45;&gt;VotesController -->
<g id="edge4" class="edge"><title>ApplicationController&#45;&gt;VotesController</title>
<path fill="none" stroke="black" d="M-277.216,85.692C-336.25,-15.8827 -474.778,-254.238 -540.594,-367.484"/>
</g>
<!-- CategoriesController -->
<g id="node7" class="node"><title>CategoriesController</title>
<path fill="none" stroke="black" d="M-623.38,-58.4793C-623.38,-58.4793 -517.38,-58.4793 -517.38,-58.4793 -511.38,-58.4793 -505.38,-64.4793 -505.38,-70.4793 -505.38,-70.4793 -505.38,-154.479 -505.38,-154.479 -505.38,-160.479 -511.38,-166.479 -517.38,-166.479 -517.38,-166.479 -623.38,-166.479 -623.38,-166.479 -629.38,-166.479 -635.38,-160.479 -635.38,-154.479 -635.38,-154.479 -635.38,-70.4793 -635.38,-70.4793 -635.38,-64.4793 -629.38,-58.4793 -623.38,-58.4793"/>
<text text-anchor="middle" x="-570.38" y="-151.279" font-family="Times,serif" font-size="14.00">CategoriesController</text>
<polyline fill="none" stroke="black" points="-635.38,-143.479 -505.38,-143.479 "/>
<text text-anchor="start" x="-627.38" y="-128.279" font-family="Times,serif" font-size="14.00">index</text>
<text text-anchor="start" x="-627.38" y="-113.279" font-family="Times,serif" font-size="14.00">show</text>
<polyline fill="none" stroke="black" points="-635.38,-105.479 -505.38,-105.479 "/>
<polyline fill="none" stroke="black" points="-635.38,-81.4793 -505.38,-81.4793 "/>
<text text-anchor="start" x="-627.38" y="-66.2793" font-family="Times,serif" font-size="14.00">_layout</text>
</g>
<!-- ApplicationController&#45;&gt;CategoriesController -->
<g id="edge5" class="edge"><title>ApplicationController&#45;&gt;CategoriesController</title>
<path fill="none" stroke="black" d="M-311.091,86.093C-366.754,43.464 -448.499,-19.1387 -505.267,-62.6134"/>
</g>
<!-- RatingCommentsController -->
<g id="node8" class="node"><title>RatingCommentsController</title>
<path fill="none" stroke="black" d="M-645.636,561.459C-645.636,561.459 -501.636,561.459 -501.636,561.459 -495.636,561.459 -489.636,555.459 -489.636,549.459 -489.636,549.459 -489.636,420.459 -489.636,420.459 -489.636,414.459 -495.636,408.459 -501.636,408.459 -501.636,408.459 -645.636,408.459 -645.636,408.459 -651.636,408.459 -657.636,414.459 -657.636,420.459 -657.636,420.459 -657.636,549.459 -657.636,549.459 -657.636,555.459 -651.636,561.459 -645.636,561.459"/>
<text text-anchor="middle" x="-573.636" y="423.659" font-family="Times,serif" font-size="14.00">RatingCommentsController</text>
<polyline fill="none" stroke="black" points="-657.636,431.459 -489.636,431.459 "/>
<text text-anchor="start" x="-649.636" y="446.659" font-family="Times,serif" font-size="14.00">create</text>
<text text-anchor="start" x="-649.636" y="461.659" font-family="Times,serif" font-size="14.00">destroy</text>
<text text-anchor="start" x="-649.636" y="476.659" font-family="Times,serif" font-size="14.00">update</text>
<polyline fill="none" stroke="black" points="-657.636,484.459 -489.636,484.459 "/>
<polyline fill="none" stroke="black" points="-657.636,508.459 -489.636,508.459 "/>
<text text-anchor="start" x="-649.636" y="523.659" font-family="Times,serif" font-size="14.00">_layout</text>
<text text-anchor="start" x="-649.636" y="538.659" font-family="Times,serif" font-size="14.00">get_rating_comment</text>
<text text-anchor="start" x="-649.636" y="553.659" font-family="Times,serif" font-size="14.00">rating_comment_params</text>
</g>
<!-- ApplicationController&#45;&gt;RatingCommentsController -->
<g id="edge6" class="edge"><title>ApplicationController&#45;&gt;RatingCommentsController</title>
<path fill="none" stroke="black" d="M-292.987,180.244C-346.702,238.566 -438.939,338.712 -502.941,408.203"/>
</g>
<!-- UserparamsController -->
<g id="node9" class="node"><title>UserparamsController</title>
<path fill="none" stroke="black" d="M3.34578,269.381C3.34578,269.381 116.346,269.381 116.346,269.381 122.346,269.381 128.346,263.381 128.346,257.381 128.346,257.381 128.346,113.381 128.346,113.381 128.346,107.381 122.346,101.381 116.346,101.381 116.346,101.381 3.34578,101.381 3.34578,101.381 -2.65422,101.381 -8.65422,107.381 -8.65422,113.381 -8.65422,113.381 -8.65422,257.381 -8.65422,257.381 -8.65422,263.381 -2.65422,269.381 3.34578,269.381"/>
<text text-anchor="middle" x="59.8458" y="116.581" font-family="Times,serif" font-size="14.00">UserparamsController</text>
<polyline fill="none" stroke="black" points="-8.65422,124.381 128.346,124.381 "/>
<text text-anchor="start" x="-0.654221" y="139.581" font-family="Times,serif" font-size="14.00">destroy</text>
<text text-anchor="start" x="-0.654221" y="154.581" font-family="Times,serif" font-size="14.00">edit</text>
<text text-anchor="start" x="-0.654221" y="169.581" font-family="Times,serif" font-size="14.00">show</text>
<text text-anchor="start" x="-0.654221" y="184.581" font-family="Times,serif" font-size="14.00">update</text>
<polyline fill="none" stroke="black" points="-8.65422,192.381 128.346,192.381 "/>
<polyline fill="none" stroke="black" points="-8.65422,216.381 128.346,216.381 "/>
<text text-anchor="start" x="-0.654221" y="231.581" font-family="Times,serif" font-size="14.00">_layout</text>
<text text-anchor="start" x="-0.654221" y="246.581" font-family="Times,serif" font-size="14.00">get_userparam</text>
<text text-anchor="start" x="-0.654221" y="261.581" font-family="Times,serif" font-size="14.00">userparam_params</text>
</g>
<!-- ApplicationController&#45;&gt;UserparamsController -->
<g id="edge7" class="edge"><title>ApplicationController&#45;&gt;UserparamsController</title>
<path fill="none" stroke="black" d="M-181.328,144.689C-130.064,153.338 -60.163,165.132 -8.81202,173.797"/>
</g>
<!-- DeviseController -->
<g id="node10" class="node"><title>DeviseController</title>
<path fill="none" stroke="black" d="M2.87035,89.8901C2.87035,89.8901 169.87,89.8901 169.87,89.8901 175.87,89.8901 181.87,83.8901 181.87,77.8901 181.87,77.8901 181.87,-290.11 181.87,-290.11 181.87,-296.11 175.87,-302.11 169.87,-302.11 169.87,-302.11 2.87035,-302.11 2.87035,-302.11 -3.12965,-302.11 -9.12965,-296.11 -9.12965,-290.11 -9.12965,-290.11 -9.12965,77.8901 -9.12965,77.8901 -9.12965,83.8901 -3.12965,89.8901 2.87035,89.8901"/>
<text text-anchor="middle" x="86.3703" y="-286.91" font-family="Times,serif" font-size="14.00">DeviseController</text>
<polyline fill="none" stroke="black" points="-9.12965,-279.11 181.87,-279.11 "/>
<text text-anchor="start" x="-1.12965" y="-263.91" font-family="Times,serif" font-size="14.00">_prefixes</text>
<polyline fill="none" stroke="black" points="-9.12965,-256.11 181.87,-256.11 "/>
<text text-anchor="start" x="-1.12965" y="-240.91" font-family="Times,serif" font-size="14.00">assert_is_devise_resource!</text>
<text text-anchor="start" x="-1.12965" y="-225.91" font-family="Times,serif" font-size="14.00">clean_up_passwords</text>
<text text-anchor="start" x="-1.12965" y="-210.91" font-family="Times,serif" font-size="14.00">devise_i18n_options</text>
<text text-anchor="start" x="-1.12965" y="-195.91" font-family="Times,serif" font-size="14.00">devise_mapping</text>
<text text-anchor="start" x="-1.12965" y="-180.91" font-family="Times,serif" font-size="14.00">find_message</text>
<text text-anchor="start" x="-1.12965" y="-165.91" font-family="Times,serif" font-size="14.00">navigational_formats</text>
<text text-anchor="start" x="-1.12965" y="-150.91" font-family="Times,serif" font-size="14.00">require_no_authentication</text>
<text text-anchor="start" x="-1.12965" y="-135.91" font-family="Times,serif" font-size="14.00">resource</text>
<text text-anchor="start" x="-1.12965" y="-120.91" font-family="Times,serif" font-size="14.00">resource=</text>
<text text-anchor="start" x="-1.12965" y="-105.91" font-family="Times,serif" font-size="14.00">resource_class</text>
<text text-anchor="start" x="-1.12965" y="-90.9099" font-family="Times,serif" font-size="14.00">resource_name</text>
<text text-anchor="start" x="-1.12965" y="-75.9099" font-family="Times,serif" font-size="14.00">resource_params</text>
<text text-anchor="start" x="-1.12965" y="-60.9099" font-family="Times,serif" font-size="14.00">respond_with_navigational</text>
<text text-anchor="start" x="-1.12965" y="-45.9099" font-family="Times,serif" font-size="14.00">scope_name</text>
<text text-anchor="start" x="-1.12965" y="-30.9099" font-family="Times,serif" font-size="14.00">set_flash_message</text>
<text text-anchor="start" x="-1.12965" y="-15.9099" font-family="Times,serif" font-size="14.00">set_flash_message!</text>
<text text-anchor="start" x="-1.12965" y="-0.909927" font-family="Times,serif" font-size="14.00">set_minimum_password_length</text>
<text text-anchor="start" x="-1.12965" y="14.0901" font-family="Times,serif" font-size="14.00">signed_in_resource</text>
<text text-anchor="start" x="-1.12965" y="29.0901" font-family="Times,serif" font-size="14.00">successfully_sent?</text>
<text text-anchor="start" x="-1.12965" y="44.0901" font-family="Times,serif" font-size="14.00">translation_scope</text>
<text text-anchor="start" x="-1.12965" y="59.0901" font-family="Times,serif" font-size="14.00">unknown_action!</text>
<polyline fill="none" stroke="black" points="-9.12965,66.8901 181.87,66.8901 "/>
<text text-anchor="start" x="-1.12965" y="82.0901" font-family="Times,serif" font-size="14.00">_layout</text>
</g>
<!-- ApplicationController&#45;&gt;DeviseController -->
<g id="edge8" class="edge"><title>ApplicationController&#45;&gt;DeviseController</title>
<path fill="none" stroke="black" d="M-183.244,85.892C-133.519,50.4812 -64.7697,1.52227 -9.14021,-38.0935"/>
</g>
<!-- Devise::PasswordsController -->
<g id="node11" class="node"><title>Devise::PasswordsController</title>
<path fill="none" stroke="black" d="M257.695,532.879C257.695,532.879 535.695,532.879 535.695,532.879 541.695,532.879 547.695,526.879 547.695,520.879 547.695,520.879 547.695,347.879 547.695,347.879 547.695,341.879 541.695,335.879 535.695,335.879 535.695,335.879 257.695,335.879 257.695,335.879 251.695,335.879 245.695,341.879 245.695,347.879 245.695,347.879 245.695,520.879 245.695,520.879 245.695,526.879 251.695,532.879 257.695,532.879"/>
<text text-anchor="middle" x="396.695" y="351.079" font-family="Times,serif" font-size="14.00">Devise::PasswordsController</text>
<polyline fill="none" stroke="black" points="245.695,358.879 547.695,358.879 "/>
<text text-anchor="start" x="253.695" y="374.079" font-family="Times,serif" font-size="14.00">create</text>
<text text-anchor="start" x="253.695" y="389.079" font-family="Times,serif" font-size="14.00">edit</text>
<text text-anchor="start" x="253.695" y="404.079" font-family="Times,serif" font-size="14.00">new</text>
<text text-anchor="start" x="253.695" y="419.079" font-family="Times,serif" font-size="14.00">update</text>
<polyline fill="none" stroke="black" points="245.695,426.879 547.695,426.879 "/>
<text text-anchor="start" x="253.695" y="442.079" font-family="Times,serif" font-size="14.00">after_resetting_password_path_for</text>
<text text-anchor="start" x="253.695" y="457.079" font-family="Times,serif" font-size="14.00">after_sending_reset_password_instructions_path_for</text>
<text text-anchor="start" x="253.695" y="472.079" font-family="Times,serif" font-size="14.00">assert_reset_token_passed</text>
<text text-anchor="start" x="253.695" y="487.079" font-family="Times,serif" font-size="14.00">translation_scope</text>
<text text-anchor="start" x="253.695" y="502.079" font-family="Times,serif" font-size="14.00">unlockable?</text>
<polyline fill="none" stroke="black" points="245.695,509.879 547.695,509.879 "/>
<text text-anchor="start" x="253.695" y="525.079" font-family="Times,serif" font-size="14.00">_layout</text>
</g>
<!-- DeviseController&#45;&gt;Devise::PasswordsController -->
<g id="edge9" class="edge"><title>DeviseController&#45;&gt;Devise::PasswordsController</title>
<path fill="none" stroke="black" d="M182.01,60.4648C233.744,150.57 295.884,258.799 339.968,335.578"/>
</g>
<!-- Devise::RegistrationsController -->
<g id="node12" class="node"><title>Devise::RegistrationsController</title>
<path fill="none" stroke="black" d="M-17.1459,657.897C-17.1459,657.897 151.854,657.897 151.854,657.897 157.854,657.897 163.854,651.897 163.854,645.897 163.854,645.897 163.854,352.897 163.854,352.897 163.854,346.897 157.854,340.897 151.854,340.897 151.854,340.897 -17.1459,340.897 -17.1459,340.897 -23.1459,340.897 -29.1459,346.897 -29.1459,352.897 -29.1459,352.897 -29.1459,645.897 -29.1459,645.897 -29.1459,651.897 -23.1459,657.897 -17.1459,657.897"/>
<text text-anchor="middle" x="67.3541" y="356.097" font-family="Times,serif" font-size="14.00">Devise::RegistrationsController</text>
<polyline fill="none" stroke="black" points="-29.1459,363.897 163.854,363.897 "/>
<text text-anchor="start" x="-21.1459" y="379.097" font-family="Times,serif" font-size="14.00">cancel</text>
<text text-anchor="start" x="-21.1459" y="394.097" font-family="Times,serif" font-size="14.00">create</text>
<text text-anchor="start" x="-21.1459" y="409.097" font-family="Times,serif" font-size="14.00">destroy</text>
<text text-anchor="start" x="-21.1459" y="424.097" font-family="Times,serif" font-size="14.00">edit</text>
<text text-anchor="start" x="-21.1459" y="439.097" font-family="Times,serif" font-size="14.00">new</text>
<text text-anchor="start" x="-21.1459" y="454.097" font-family="Times,serif" font-size="14.00">update</text>
<polyline fill="none" stroke="black" points="-29.1459,461.897 163.854,461.897 "/>
<text text-anchor="start" x="-21.1459" y="477.097" font-family="Times,serif" font-size="14.00">account_update_params</text>
<text text-anchor="start" x="-21.1459" y="492.097" font-family="Times,serif" font-size="14.00">after_inactive_sign_up_path_for</text>
<text text-anchor="start" x="-21.1459" y="507.097" font-family="Times,serif" font-size="14.00">after_sign_up_path_for</text>
<text text-anchor="start" x="-21.1459" y="522.097" font-family="Times,serif" font-size="14.00">after_update_path_for</text>
<text text-anchor="start" x="-21.1459" y="537.097" font-family="Times,serif" font-size="14.00">authenticate_scope!</text>
<text text-anchor="start" x="-21.1459" y="552.097" font-family="Times,serif" font-size="14.00">build_resource</text>
<text text-anchor="start" x="-21.1459" y="567.097" font-family="Times,serif" font-size="14.00">sign_up</text>
<text text-anchor="start" x="-21.1459" y="582.097" font-family="Times,serif" font-size="14.00">sign_up_params</text>
<text text-anchor="start" x="-21.1459" y="597.097" font-family="Times,serif" font-size="14.00">translation_scope</text>
<text text-anchor="start" x="-21.1459" y="612.097" font-family="Times,serif" font-size="14.00">update_needs_confirmation?</text>
<text text-anchor="start" x="-21.1459" y="627.097" font-family="Times,serif" font-size="14.00">update_resource</text>
<polyline fill="none" stroke="black" points="-29.1459,634.897 163.854,634.897 "/>
<text text-anchor="start" x="-21.1459" y="650.097" font-family="Times,serif" font-size="14.00">_layout</text>
</g>
<!-- DeviseController&#45;&gt;Devise::RegistrationsController -->
<g id="edge10" class="edge"><title>DeviseController&#45;&gt;Devise::RegistrationsController</title>
<path fill="none" stroke="black" d="M130.595,90.0096C130.933,92.7478 131.25,95.4727 131.546,98.1809 139.964,175.234 142.201,195.806 131.546,272.581 128.452,294.876 123.724,318.06 118.208,340.723"/>
</g>
<!-- Devise::SessionsController -->
<g id="node13" class="node"><title>Devise::SessionsController</title>
<path fill="none" stroke="black" d="M-303.438,-338.071C-303.438,-338.071 -163.438,-338.071 -163.438,-338.071 -157.438,-338.071 -151.438,-344.071 -151.438,-350.071 -151.438,-350.071 -151.438,-538.071 -151.438,-538.071 -151.438,-544.071 -157.438,-550.071 -163.438,-550.071 -163.438,-550.071 -303.438,-550.071 -303.438,-550.071 -309.438,-550.071 -315.438,-544.071 -315.438,-538.071 -315.438,-538.071 -315.438,-350.071 -315.438,-350.071 -315.438,-344.071 -309.438,-338.071 -303.438,-338.071"/>
<text text-anchor="middle" x="-233.438" y="-534.871" font-family="Times,serif" font-size="14.00">Devise::SessionsController</text>
<polyline fill="none" stroke="black" points="-315.438,-527.071 -151.438,-527.071 "/>
<text text-anchor="start" x="-307.438" y="-511.871" font-family="Times,serif" font-size="14.00">create</text>
<text text-anchor="start" x="-307.438" y="-496.871" font-family="Times,serif" font-size="14.00">destroy</text>
<text text-anchor="start" x="-307.438" y="-481.871" font-family="Times,serif" font-size="14.00">new</text>
<polyline fill="none" stroke="black" points="-315.438,-474.071 -151.438,-474.071 "/>
<text text-anchor="start" x="-307.438" y="-458.871" font-family="Times,serif" font-size="14.00">auth_options</text>
<text text-anchor="start" x="-307.438" y="-443.871" font-family="Times,serif" font-size="14.00">serialize_options</text>
<text text-anchor="start" x="-307.438" y="-428.871" font-family="Times,serif" font-size="14.00">sign_in_params</text>
<text text-anchor="start" x="-307.438" y="-413.871" font-family="Times,serif" font-size="14.00">translation_scope</text>
<polyline fill="none" stroke="black" points="-315.438,-406.071 -151.438,-406.071 "/>
<text text-anchor="start" x="-307.438" y="-390.871" font-family="Times,serif" font-size="14.00">_layout</text>
<text text-anchor="start" x="-307.438" y="-375.871" font-family="Times,serif" font-size="14.00">all_signed_out?</text>
<text text-anchor="start" x="-307.438" y="-360.871" font-family="Times,serif" font-size="14.00">respond_to_on_destroy</text>
<text text-anchor="start" x="-307.438" y="-345.871" font-family="Times,serif" font-size="14.00">verify_signed_out_user</text>
</g>
<!-- DeviseController&#45;&gt;Devise::SessionsController -->
<g id="edge11" class="edge"><title>DeviseController&#45;&gt;Devise::SessionsController</title>
<path fill="none" stroke="black" d="M-9.14939,-207.052C-54.4271,-254.9 -107.973,-311.485 -151.389,-357.365"/>
</g>
<!-- Devise::UnlocksController -->
<g id="node14" class="node"><title>Devise::UnlocksController</title>
<path fill="none" stroke="black" d="M282.598,107.941C282.598,107.941 514.598,107.941 514.598,107.941 520.598,107.941 526.598,101.941 526.598,95.9407 526.598,95.9407 526.598,-32.0593 526.598,-32.0593 526.598,-38.0593 520.598,-44.0593 514.598,-44.0593 514.598,-44.0593 282.598,-44.0593 282.598,-44.0593 276.598,-44.0593 270.598,-38.0593 270.598,-32.0593 270.598,-32.0593 270.598,95.9407 270.598,95.9407 270.598,101.941 276.598,107.941 282.598,107.941"/>
<text text-anchor="middle" x="398.598" y="-28.8593" font-family="Times,serif" font-size="14.00">Devise::UnlocksController</text>
<polyline fill="none" stroke="black" points="270.598,-21.0593 526.598,-21.0593 "/>
<text text-anchor="start" x="278.598" y="-5.85934" font-family="Times,serif" font-size="14.00">create</text>
<text text-anchor="start" x="278.598" y="9.14066" font-family="Times,serif" font-size="14.00">new</text>
<text text-anchor="start" x="278.598" y="24.1407" font-family="Times,serif" font-size="14.00">show</text>
<polyline fill="none" stroke="black" points="270.598,31.9407 526.598,31.9407 "/>
<text text-anchor="start" x="278.598" y="47.1407" font-family="Times,serif" font-size="14.00">after_sending_unlock_instructions_path_for</text>
<text text-anchor="start" x="278.598" y="62.1407" font-family="Times,serif" font-size="14.00">after_unlock_path_for</text>
<text text-anchor="start" x="278.598" y="77.1407" font-family="Times,serif" font-size="14.00">translation_scope</text>
<polyline fill="none" stroke="black" points="270.598,84.9407 526.598,84.9407 "/>
<text text-anchor="start" x="278.598" y="100.141" font-family="Times,serif" font-size="14.00">_layout</text>
</g>
<!-- DeviseController&#45;&gt;Devise::UnlocksController -->
<g id="edge12" class="edge"><title>DeviseController&#45;&gt;Devise::UnlocksController</title>
<path fill="none" stroke="black" d="M182.171,-63.752C210.045,-51.4272 240.952,-37.7621 270.477,-24.7076"/>
</g>
<!-- Devise::ConfirmationsController -->
<g id="node15" class="node"><title>Devise::ConfirmationsController</title>
<path fill="none" stroke="black" d="M261.151,-306.552C261.151,-306.552 537.151,-306.552 537.151,-306.552 543.151,-306.552 549.151,-312.552 549.151,-318.552 549.151,-318.552 549.151,-446.552 549.151,-446.552 549.151,-452.552 543.151,-458.552 537.151,-458.552 537.151,-458.552 261.151,-458.552 261.151,-458.552 255.151,-458.552 249.151,-452.552 249.151,-446.552 249.151,-446.552 249.151,-318.552 249.151,-318.552 249.151,-312.552 255.151,-306.552 261.151,-306.552"/>
<text text-anchor="middle" x="399.151" y="-443.352" font-family="Times,serif" font-size="14.00">Devise::ConfirmationsController</text>
<polyline fill="none" stroke="black" points="249.151,-435.552 549.151,-435.552 "/>
<text text-anchor="start" x="257.151" y="-420.352" font-family="Times,serif" font-size="14.00">create</text>
<text text-anchor="start" x="257.151" y="-405.352" font-family="Times,serif" font-size="14.00">new</text>
<text text-anchor="start" x="257.151" y="-390.352" font-family="Times,serif" font-size="14.00">show</text>
<polyline fill="none" stroke="black" points="249.151,-382.552 549.151,-382.552 "/>
<text text-anchor="start" x="257.151" y="-367.352" font-family="Times,serif" font-size="14.00">after_confirmation_path_for</text>
<text text-anchor="start" x="257.151" y="-352.352" font-family="Times,serif" font-size="14.00">after_resending_confirmation_instructions_path_for</text>
<text text-anchor="start" x="257.151" y="-337.352" font-family="Times,serif" font-size="14.00">translation_scope</text>
<polyline fill="none" stroke="black" points="249.151,-329.552 549.151,-329.552 "/>
<text text-anchor="start" x="257.151" y="-314.352" font-family="Times,serif" font-size="14.00">_layout</text>
</g>
<!-- DeviseController&#45;&gt;Devise::ConfirmationsController -->
<g id="edge13" class="edge"><title>DeviseController&#45;&gt;Devise::ConfirmationsController</title>
<path fill="none" stroke="black" d="M181.914,-190.554C223.684,-227.47 272.315,-270.451 312.961,-306.375"/>
</g>
<!-- Devise::OmniauthCallbacksController -->
<g id="node16" class="node"><title>Devise::OmniauthCallbacksController</title>
<path fill="none" stroke="black" d="M-28.0432,-358.25C-28.0432,-358.25 172.957,-358.25 172.957,-358.25 178.957,-358.25 184.957,-364.25 184.957,-370.25 184.957,-370.25 184.957,-498.25 184.957,-498.25 184.957,-504.25 178.957,-510.25 172.957,-510.25 172.957,-510.25 -28.0432,-510.25 -28.0432,-510.25 -34.0432,-510.25 -40.0432,-504.25 -40.0432,-498.25 -40.0432,-498.25 -40.0432,-370.25 -40.0432,-370.25 -40.0432,-364.25 -34.0432,-358.25 -28.0432,-358.25"/>
<text text-anchor="middle" x="72.4568" y="-495.05" font-family="Times,serif" font-size="14.00">Devise::OmniauthCallbacksController</text>
<polyline fill="none" stroke="black" points="-40.0432,-487.25 184.957,-487.25 "/>
<text text-anchor="start" x="-32.0432" y="-472.05" font-family="Times,serif" font-size="14.00">failure</text>
<text text-anchor="start" x="-32.0432" y="-457.05" font-family="Times,serif" font-size="14.00">passthru</text>
<polyline fill="none" stroke="black" points="-40.0432,-449.25 184.957,-449.25 "/>
<text text-anchor="start" x="-32.0432" y="-434.05" font-family="Times,serif" font-size="14.00">after_omniauth_failure_path_for</text>
<text text-anchor="start" x="-32.0432" y="-419.05" font-family="Times,serif" font-size="14.00">failed_strategy</text>
<text text-anchor="start" x="-32.0432" y="-404.05" font-family="Times,serif" font-size="14.00">failure_message</text>
<text text-anchor="start" x="-32.0432" y="-389.05" font-family="Times,serif" font-size="14.00">translation_scope</text>
<polyline fill="none" stroke="black" points="-40.0432,-381.25 184.957,-381.25 "/>
<text text-anchor="start" x="-32.0432" y="-366.05" font-family="Times,serif" font-size="14.00">_layout</text>
</g>
<!-- DeviseController&#45;&gt;Devise::OmniauthCallbacksController -->
<g id="edge14" class="edge"><title>DeviseController&#45;&gt;Devise::OmniauthCallbacksController</title>
<path fill="none" stroke="black" d="M78.0558,-302.201C77.2201,-321.911 76.4116,-340.979 75.6811,-358.208"/>
</g>
</g>
</svg>
