<?xml version="1.0" encoding="UTF-8" standalone="no"?>
<!DOCTYPE svg PUBLIC "-//W3C//DTD SVG 1.1//EN"
 "http://www.w3.org/Graphics/SVG/1.1/DTD/svg11.dtd">
<!-- Generated by graphviz version 2.38.0 (20140413.2041)
 -->
<!-- Title: models_diagram Pages: 1 -->
<svg width="965pt" height="1228pt"
 viewBox="0.00 0.00 965.13 1228.00" xmlns="http://www.w3.org/2000/svg" xmlns:xlink="http://www.w3.org/1999/xlink">
<g id="graph0" class="graph" transform="scale(1 1) rotate(0) translate(4 1224)">
<title>models_diagram</title>
<polygon fill="none" stroke="none" points="-4,4 -4,-1224 961.132,-1224 961.132,4 -4,4"/>
<!-- _diagram_info -->
<g id="node1" class="node"><title>_diagram_info</title>
<text text-anchor="start" x="158.132" y="-1205.6" font-family="Times,serif" font-size="13.00">Models diagram</text>
<text text-anchor="start" x="158.132" y="-1191.6" font-family="Times,serif" font-size="13.00">Date: May 30 2018 &#45; 20:12</text>
<text text-anchor="start" x="158.132" y="-1177.6" font-family="Times,serif" font-size="13.00">Migration version: 20180530081635</text>
<text text-anchor="start" x="158.132" y="-1163.6" font-family="Times,serif" font-size="13.00">Generated by RailRoady 1.5.3</text>
<text text-anchor="start" x="158.132" y="-1149.6" font-family="Times,serif" font-size="13.00">http://railroady.prestonlee.com</text>
</g>
<!-- Vote -->
<g id="node2" class="node"><title>Vote</title>
<path fill="none" stroke="black" d="M105.132,-654C105.132,-654 221.132,-654 221.132,-654 227.132,-654 233.132,-660 233.132,-666 233.132,-666 233.132,-778 233.132,-778 233.132,-784 227.132,-790 221.132,-790 221.132,-790 105.132,-790 105.132,-790 99.1323,-790 93.1323,-784 93.1323,-778 93.1323,-778 93.1323,-666 93.1323,-666 93.1323,-660 99.1323,-654 105.132,-654"/>
<text text-anchor="middle" x="163.132" y="-774.8" font-family="Times,serif" font-size="14.00">Vote</text>
<polyline fill="none" stroke="black" points="93.1323,-767 233.132,-767 "/>
<text text-anchor="start" x="101.132" y="-751.8" font-family="Times,serif" font-size="14.00">id :INTEGER</text>
<text text-anchor="start" x="101.132" y="-736.8" font-family="Times,serif" font-size="14.00">user_id :integer</text>
<text text-anchor="start" x="101.132" y="-721.8" font-family="Times,serif" font-size="14.00">resource_type :varchar</text>
<text text-anchor="start" x="101.132" y="-706.8" font-family="Times,serif" font-size="14.00">resource_id :integer</text>
<text text-anchor="start" x="101.132" y="-691.8" font-family="Times,serif" font-size="14.00">score :integer</text>
<text text-anchor="start" x="101.132" y="-676.8" font-family="Times,serif" font-size="14.00">created_at :datetime</text>
<text text-anchor="start" x="101.132" y="-661.8" font-family="Times,serif" font-size="14.00">updated_at :datetime</text>
</g>
<!-- User -->
<g id="node3" class="node"><title>User</title>
<path fill="none" stroke="black" d="M216.132,-879.5C216.132,-879.5 392.132,-879.5 392.132,-879.5 398.132,-879.5 404.132,-885.5 404.132,-891.5 404.132,-891.5 404.132,-1093.5 404.132,-1093.5 404.132,-1099.5 398.132,-1105.5 392.132,-1105.5 392.132,-1105.5 216.132,-1105.5 216.132,-1105.5 210.132,-1105.5 204.132,-1099.5 204.132,-1093.5 204.132,-1093.5 204.132,-891.5 204.132,-891.5 204.132,-885.5 210.132,-879.5 216.132,-879.5"/>
<text text-anchor="middle" x="304.132" y="-1090.3" font-family="Times,serif" font-size="14.00">User</text>
<polyline fill="none" stroke="black" points="204.132,-1082.5 404.132,-1082.5 "/>
<text text-anchor="start" x="212.132" y="-1067.3" font-family="Times,serif" font-size="14.00">id :INTEGER</text>
<text text-anchor="start" x="212.132" y="-1052.3" font-family="Times,serif" font-size="14.00">email :varchar</text>
<text text-anchor="start" x="212.132" y="-1037.3" font-family="Times,serif" font-size="14.00">encrypted_password :varchar</text>
<text text-anchor="start" x="212.132" y="-1022.3" font-family="Times,serif" font-size="14.00">reset_password_token :varchar</text>
<text text-anchor="start" x="212.132" y="-1007.3" font-family="Times,serif" font-size="14.00">reset_password_sent_at :datetime</text>
<text text-anchor="start" x="212.132" y="-992.3" font-family="Times,serif" font-size="14.00">remember_created_at :datetime</text>
<text text-anchor="start" x="212.132" y="-977.3" font-family="Times,serif" font-size="14.00">sign_in_count :integer</text>
<text text-anchor="start" x="212.132" y="-962.3" font-family="Times,serif" font-size="14.00">current_sign_in_at :datetime</text>
<text text-anchor="start" x="212.132" y="-947.3" font-family="Times,serif" font-size="14.00">last_sign_in_at :datetime</text>
<text text-anchor="start" x="212.132" y="-932.3" font-family="Times,serif" font-size="14.00">current_sign_in_ip :varchar</text>
<text text-anchor="start" x="212.132" y="-917.3" font-family="Times,serif" font-size="14.00">last_sign_in_ip :varchar</text>
<text text-anchor="start" x="212.132" y="-902.3" font-family="Times,serif" font-size="14.00">created_at :datetime</text>
<text text-anchor="start" x="212.132" y="-887.3" font-family="Times,serif" font-size="14.00">updated_at :datetime</text>
</g>
<!-- User&#45;&gt;Vote -->
<g id="edge6" class="edge"><title>User&#45;&gt;Vote</title>
<path fill="none" stroke="#eed1ea" d="M241.407,-872.056C228.363,-847.216 214.959,-821.691 203.011,-798.94"/>
<ellipse fill="none" stroke="#eed1ea" cx="243.293" cy="-875.646" rx="4.00002" ry="4.00002"/>
<polygon fill="#eed1ea" stroke="#eed1ea" points="202.984,-798.888 202.319,-787.942 200.659,-794.461 198.335,-790.034 198.335,-790.034 198.335,-790.034 200.659,-794.461 194.351,-792.126 202.984,-798.888 202.984,-798.888"/>
</g>
<!-- RatingComment -->
<g id="node5" class="node"><title>RatingComment</title>
<path fill="none" stroke="black" d="M150.632,-0.5C150.632,-0.5 257.632,-0.5 257.632,-0.5 263.632,-0.5 269.632,-6.5 269.632,-12.5 269.632,-12.5 269.632,-109.5 269.632,-109.5 269.632,-115.5 263.632,-121.5 257.632,-121.5 257.632,-121.5 150.632,-121.5 150.632,-121.5 144.632,-121.5 138.632,-115.5 138.632,-109.5 138.632,-109.5 138.632,-12.5 138.632,-12.5 138.632,-6.5 144.632,-0.5 150.632,-0.5"/>
<text text-anchor="middle" x="204.132" y="-106.3" font-family="Times,serif" font-size="14.00">RatingComment</text>
<polyline fill="none" stroke="black" points="138.632,-98.5 269.632,-98.5 "/>
<text text-anchor="start" x="146.632" y="-83.3" font-family="Times,serif" font-size="14.00">id :INTEGER</text>
<text text-anchor="start" x="146.632" y="-68.3" font-family="Times,serif" font-size="14.00">rating_id :integer</text>
<text text-anchor="start" x="146.632" y="-53.3" font-family="Times,serif" font-size="14.00">user_id :integer</text>
<text text-anchor="start" x="146.632" y="-38.3" font-family="Times,serif" font-size="14.00">text :varchar</text>
<text text-anchor="start" x="146.632" y="-23.3" font-family="Times,serif" font-size="14.00">created_at :datetime</text>
<text text-anchor="start" x="146.632" y="-8.3" font-family="Times,serif" font-size="14.00">updated_at :datetime</text>
</g>
<!-- User&#45;&gt;RatingComment -->
<g id="edge4" class="edge"><title>User&#45;&gt;RatingComment</title>
<path fill="none" stroke="#40b6ae" d="M304.848,-871.126C305.508,-656.271 303.82,-223.052 280.132,-158 276.632,-148.388 271.763,-138.998 266.162,-130.085"/>
<ellipse fill="none" stroke="#40b6ae" cx="304.834" cy="-875.304" rx="4" ry="4"/>
<polygon fill="#40b6ae" stroke="#40b6ae" points="266.122,-130.025 264.338,-119.205 263.356,-125.86 260.589,-121.695 260.589,-121.695 260.589,-121.695 263.356,-125.86 256.841,-124.185 266.122,-130.025 266.122,-130.025"/>
</g>
<!-- Userparam -->
<g id="node7" class="node"><title>Userparam</title>
<path fill="none" stroke="black" d="M377.132,-609C377.132,-609 489.132,-609 489.132,-609 495.132,-609 501.132,-615 501.132,-621 501.132,-621 501.132,-823 501.132,-823 501.132,-829 495.132,-835 489.132,-835 489.132,-835 377.132,-835 377.132,-835 371.132,-835 365.132,-829 365.132,-823 365.132,-823 365.132,-621 365.132,-621 365.132,-615 371.132,-609 377.132,-609"/>
<text text-anchor="middle" x="433.132" y="-819.8" font-family="Times,serif" font-size="14.00">Userparam</text>
<polyline fill="none" stroke="black" points="365.132,-812 501.132,-812 "/>
<text text-anchor="start" x="373.132" y="-796.8" font-family="Times,serif" font-size="14.00">id :INTEGER</text>
<text text-anchor="start" x="373.132" y="-781.8" font-family="Times,serif" font-size="14.00">user_id :integer</text>
<text text-anchor="start" x="373.132" y="-766.8" font-family="Times,serif" font-size="14.00">name :varchar</text>
<text text-anchor="start" x="373.132" y="-751.8" font-family="Times,serif" font-size="14.00">full_name :varchar</text>
<text text-anchor="start" x="373.132" y="-736.8" font-family="Times,serif" font-size="14.00">dofb :datetime</text>
<text text-anchor="start" x="373.132" y="-721.8" font-family="Times,serif" font-size="14.00">facebook_url :varchar</text>
<text text-anchor="start" x="373.132" y="-706.8" font-family="Times,serif" font-size="14.00">country :varchar</text>
<text text-anchor="start" x="373.132" y="-691.8" font-family="Times,serif" font-size="14.00">city :varchar</text>
<text text-anchor="start" x="373.132" y="-676.8" font-family="Times,serif" font-size="14.00">adress :varchar</text>
<text text-anchor="start" x="373.132" y="-661.8" font-family="Times,serif" font-size="14.00">score :integer</text>
<text text-anchor="start" x="373.132" y="-646.8" font-family="Times,serif" font-size="14.00">avatar :varchar</text>
<text text-anchor="start" x="373.132" y="-631.8" font-family="Times,serif" font-size="14.00">created_at :datetime</text>
<text text-anchor="start" x="373.132" y="-616.8" font-family="Times,serif" font-size="14.00">updated_at :datetime</text>
</g>
<!-- User&#45;&gt;Userparam -->
<g id="edge2" class="edge"><title>User&#45;&gt;Userparam</title>
<path fill="none" stroke="#8368eb" d="M361.701,-871.676C366.335,-862.032 371.016,-852.288 375.649,-842.645"/>
<ellipse fill="none" stroke="#8368eb" cx="359.825" cy="-875.582" rx="4.00002" ry="4.00002"/>
<ellipse fill="#8368eb" stroke="#8368eb" cx="377.449" cy="-838.9" rx="4.00002" ry="4.00002"/>
</g>
<!-- InstitutionComment -->
<g id="node9" class="node"><title>InstitutionComment</title>
<path fill="none" stroke="black" d="M510.132,-301C510.132,-301 620.132,-301 620.132,-301 626.132,-301 632.132,-307 632.132,-313 632.132,-313 632.132,-410 632.132,-410 632.132,-416 626.132,-422 620.132,-422 620.132,-422 510.132,-422 510.132,-422 504.132,-422 498.132,-416 498.132,-410 498.132,-410 498.132,-313 498.132,-313 498.132,-307 504.132,-301 510.132,-301"/>
<text text-anchor="middle" x="565.132" y="-406.8" font-family="Times,serif" font-size="14.00">InstitutionComment</text>
<polyline fill="none" stroke="black" points="498.132,-399 632.132,-399 "/>
<text text-anchor="start" x="506.132" y="-383.8" font-family="Times,serif" font-size="14.00">id :INTEGER</text>
<text text-anchor="start" x="506.132" y="-368.8" font-family="Times,serif" font-size="14.00">user_id :integer</text>
<text text-anchor="start" x="506.132" y="-353.8" font-family="Times,serif" font-size="14.00">institution_id :integer</text>
<text text-anchor="start" x="506.132" y="-338.8" font-family="Times,serif" font-size="14.00">text :varchar</text>
<text text-anchor="start" x="506.132" y="-323.8" font-family="Times,serif" font-size="14.00">created_at :datetime</text>
<text text-anchor="start" x="506.132" y="-308.8" font-family="Times,serif" font-size="14.00">updated_at :datetime</text>
</g>
<!-- User&#45;&gt;InstitutionComment -->
<g id="edge5" class="edge"><title>User&#45;&gt;InstitutionComment</title>
<path fill="none" stroke="#1d5a5b" d="M312.509,-871.116C320.629,-774.623 334.863,-647.873 356.132,-601 387.012,-532.948 443.904,-470.009 490.541,-425.895"/>
<ellipse fill="none" stroke="#1d5a5b" cx="312.17" cy="-875.194" rx="4" ry="4"/>
<polygon fill="#1d5a5b" stroke="#1d5a5b" points="490.631,-425.811 501.007,-422.264 494.282,-422.394 497.933,-418.978 497.933,-418.978 497.933,-418.978 494.282,-422.394 494.858,-415.692 490.631,-425.811 490.631,-425.811"/>
</g>
<!-- Rating -->
<g id="node10" class="node"><title>Rating</title>
<path fill="none" stroke="black" d="M149.132,-271C149.132,-271 259.132,-271 259.132,-271 265.132,-271 271.132,-277 271.132,-283 271.132,-283 271.132,-440 271.132,-440 271.132,-446 265.132,-452 259.132,-452 259.132,-452 149.132,-452 149.132,-452 143.132,-452 137.132,-446 137.132,-440 137.132,-440 137.132,-283 137.132,-283 137.132,-277 143.132,-271 149.132,-271"/>
<text text-anchor="middle" x="204.132" y="-436.8" font-family="Times,serif" font-size="14.00">Rating</text>
<polyline fill="none" stroke="black" points="137.132,-429 271.132,-429 "/>
<text text-anchor="start" x="145.132" y="-413.8" font-family="Times,serif" font-size="14.00">id :INTEGER</text>
<text text-anchor="start" x="145.132" y="-398.8" font-family="Times,serif" font-size="14.00">institution_id :integer</text>
<text text-anchor="start" x="145.132" y="-383.8" font-family="Times,serif" font-size="14.00">user_id :integer</text>
<text text-anchor="start" x="145.132" y="-368.8" font-family="Times,serif" font-size="14.00">text :varchar</text>
<text text-anchor="start" x="145.132" y="-353.8" font-family="Times,serif" font-size="14.00">kitchen :integer</text>
<text text-anchor="start" x="145.132" y="-338.8" font-family="Times,serif" font-size="14.00">servise :integer</text>
<text text-anchor="start" x="145.132" y="-323.8" font-family="Times,serif" font-size="14.00">cleannes :integer</text>
<text text-anchor="start" x="145.132" y="-308.8" font-family="Times,serif" font-size="14.00">atmosphere :integer</text>
<text text-anchor="start" x="145.132" y="-293.8" font-family="Times,serif" font-size="14.00">created_at :datetime</text>
<text text-anchor="start" x="145.132" y="-278.8" font-family="Times,serif" font-size="14.00">updated_at :datetime</text>
</g>
<!-- User&#45;&gt;Rating -->
<g id="edge3" class="edge"><title>User&#45;&gt;Rating</title>
<path fill="none" stroke="#f61fc9" d="M284.987,-870.804C272.742,-793.64 256.515,-691.428 242.132,-601 234.892,-555.477 226.862,-505.069 220.056,-462.367"/>
<ellipse fill="none" stroke="#f61fc9" cx="285.682" cy="-875.187" rx="4.00001" ry="4.00001"/>
<polygon fill="#f61fc9" stroke="#f61fc9" points="220.018,-462.128 222.888,-451.544 219.231,-457.19 218.444,-452.252 218.444,-452.252 218.444,-452.252 219.231,-457.19 214,-452.961 220.018,-462.128 220.018,-462.128"/>
</g>
<!-- WorkTime -->
<g id="node4" class="node"><title>WorkTime</title>
<path fill="none" stroke="black" d="M662.132,-158.5C662.132,-158.5 796.132,-158.5 796.132,-158.5 802.132,-158.5 808.132,-164.5 808.132,-170.5 808.132,-170.5 808.132,-552.5 808.132,-552.5 808.132,-558.5 802.132,-564.5 796.132,-564.5 796.132,-564.5 662.132,-564.5 662.132,-564.5 656.132,-564.5 650.132,-558.5 650.132,-552.5 650.132,-552.5 650.132,-170.5 650.132,-170.5 650.132,-164.5 656.132,-158.5 662.132,-158.5"/>
<text text-anchor="middle" x="729.132" y="-549.3" font-family="Times,serif" font-size="14.00">WorkTime</text>
<polyline fill="none" stroke="black" points="650.132,-541.5 808.132,-541.5 "/>
<text text-anchor="start" x="658.132" y="-526.3" font-family="Times,serif" font-size="14.00">id :INTEGER</text>
<text text-anchor="start" x="658.132" y="-511.3" font-family="Times,serif" font-size="14.00">institution_id :integer</text>
<text text-anchor="start" x="658.132" y="-496.3" font-family="Times,serif" font-size="14.00">mondayWork :boolean</text>
<text text-anchor="start" x="658.132" y="-481.3" font-family="Times,serif" font-size="14.00">mondayStart :varchar</text>
<text text-anchor="start" x="658.132" y="-466.3" font-family="Times,serif" font-size="14.00">mondayEnd :varchar</text>
<text text-anchor="start" x="658.132" y="-451.3" font-family="Times,serif" font-size="14.00">tuesdayWork :boolean</text>
<text text-anchor="start" x="658.132" y="-436.3" font-family="Times,serif" font-size="14.00">tuesdayStart :varchar</text>
<text text-anchor="start" x="658.132" y="-421.3" font-family="Times,serif" font-size="14.00">tuesdayEnd :varchar</text>
<text text-anchor="start" x="658.132" y="-406.3" font-family="Times,serif" font-size="14.00">wednesdayWork :boolean</text>
<text text-anchor="start" x="658.132" y="-391.3" font-family="Times,serif" font-size="14.00">wednesdayStart :varchar</text>
<text text-anchor="start" x="658.132" y="-376.3" font-family="Times,serif" font-size="14.00">wednesdayEnd :varchar</text>
<text text-anchor="start" x="658.132" y="-361.3" font-family="Times,serif" font-size="14.00">thursdayWork :boolean</text>
<text text-anchor="start" x="658.132" y="-346.3" font-family="Times,serif" font-size="14.00">thursdayStart :varchar</text>
<text text-anchor="start" x="658.132" y="-331.3" font-family="Times,serif" font-size="14.00">thursdayEnd :varchar</text>
<text text-anchor="start" x="658.132" y="-316.3" font-family="Times,serif" font-size="14.00">fridayWork :boolean</text>
<text text-anchor="start" x="658.132" y="-301.3" font-family="Times,serif" font-size="14.00">fridayStart :varchar</text>
<text text-anchor="start" x="658.132" y="-286.3" font-family="Times,serif" font-size="14.00">fridayEnd :varchar</text>
<text text-anchor="start" x="658.132" y="-271.3" font-family="Times,serif" font-size="14.00">saturdayWork :boolean</text>
<text text-anchor="start" x="658.132" y="-256.3" font-family="Times,serif" font-size="14.00">saturdayStart :varchar</text>
<text text-anchor="start" x="658.132" y="-241.3" font-family="Times,serif" font-size="14.00">saturdayEnd :varchar</text>
<text text-anchor="start" x="658.132" y="-226.3" font-family="Times,serif" font-size="14.00">sundayWork :boolean</text>
<text text-anchor="start" x="658.132" y="-211.3" font-family="Times,serif" font-size="14.00">sundayStart :varchar</text>
<text text-anchor="start" x="658.132" y="-196.3" font-family="Times,serif" font-size="14.00">sundayEnd :varchar</text>
<text text-anchor="start" x="658.132" y="-181.3" font-family="Times,serif" font-size="14.00">created_at :datetime</text>
<text text-anchor="start" x="658.132" y="-166.3" font-family="Times,serif" font-size="14.00">updated_at :datetime</text>
</g>
<!-- ApplicationRecord -->
<g id="node6" class="node"><title>ApplicationRecord</title>
<ellipse fill="none" stroke="black" cx="459.132" cy="-1181" rx="77.1866" ry="18"/>
<text text-anchor="middle" x="459.132" y="-1177.3" font-family="Times,serif" font-size="14.00">ApplicationRecord</text>
</g>
<!-- ApplicationRecord&#45;&gt;Vote -->
<g id="edge1" class="edge"><title>ApplicationRecord&#45;&gt;Vote</title>
<path fill="none" stroke="black" d="M428.312,-1164.44C412.197,-1156.8 391.955,-1147.98 373.132,-1142 296.213,-1117.55 248.795,-1166.29 195.132,-1106 118.275,-1019.65 130.789,-874.761 146.91,-790.116"/>
</g>
<!-- ApplicationRecord&#45;&gt;User -->
<g id="edge7" class="edge"><title>ApplicationRecord&#45;&gt;User</title>
<path fill="none" stroke="black" d="M445.104,-1163.12C433.553,-1149.22 416.076,-1128.19 397.32,-1105.63"/>
</g>
<!-- ApplicationRecord&#45;&gt;WorkTime -->
<g id="edge8" class="edge"><title>ApplicationRecord&#45;&gt;WorkTime</title>
<path fill="none" stroke="black" d="M534.935,-1177.27C587.589,-1171 654.618,-1153.39 691.132,-1106 754.098,-1024.29 753.315,-755.408 743.802,-564.539"/>
</g>
<!-- ApplicationRecord&#45;&gt;RatingComment -->
<g id="edge9" class="edge"><title>ApplicationRecord&#45;&gt;RatingComment</title>
<path fill="none" stroke="black" d="M429.299,-1164.16C413.112,-1156.26 392.503,-1147.28 373.132,-1142 306.649,-1123.87 111.139,-1157.3 65.1323,-1106 -75.8256,-948.814 44.4261,-351.829 128.132,-158 133.568,-145.413 141.089,-133.074 149.3,-121.658"/>
</g>
<!-- ApplicationRecord&#45;&gt;Userparam -->
<g id="edge10" class="edge"><title>ApplicationRecord&#45;&gt;Userparam</title>
<path fill="none" stroke="black" d="M458.16,-1162.92C455.164,-1110.26 445.887,-947.195 439.51,-835.109"/>
</g>
<!-- Category -->
<g id="node8" class="node"><title>Category</title>
<path fill="none" stroke="black" d="M524.632,-947C524.632,-947 631.632,-947 631.632,-947 637.632,-947 643.632,-953 643.632,-959 643.632,-959 643.632,-1026 643.632,-1026 643.632,-1032 637.632,-1038 631.632,-1038 631.632,-1038 524.632,-1038 524.632,-1038 518.632,-1038 512.632,-1032 512.632,-1026 512.632,-1026 512.632,-959 512.632,-959 512.632,-953 518.632,-947 524.632,-947"/>
<text text-anchor="middle" x="578.132" y="-1022.8" font-family="Times,serif" font-size="14.00">Category</text>
<polyline fill="none" stroke="black" points="512.632,-1015 643.632,-1015 "/>
<text text-anchor="start" x="520.632" y="-999.8" font-family="Times,serif" font-size="14.00">id :INTEGER</text>
<text text-anchor="start" x="520.632" y="-984.8" font-family="Times,serif" font-size="14.00">name :varchar</text>
<text text-anchor="start" x="520.632" y="-969.8" font-family="Times,serif" font-size="14.00">created_at :datetime</text>
<text text-anchor="start" x="520.632" y="-954.8" font-family="Times,serif" font-size="14.00">updated_at :datetime</text>
</g>
<!-- ApplicationRecord&#45;&gt;Category -->
<g id="edge12" class="edge"><title>ApplicationRecord&#45;&gt;Category</title>
<path fill="none" stroke="black" d="M469.903,-1163.12C487.753,-1135.14 524.038,-1078.28 549.662,-1038.12"/>
</g>
<!-- ApplicationRecord&#45;&gt;InstitutionComment -->
<g id="edge13" class="edge"><title>ApplicationRecord&#45;&gt;InstitutionComment</title>
<path fill="none" stroke="black" d="M527.771,-1172.4C570.96,-1163.77 623.884,-1145.34 653.132,-1106 720.131,-1015.87 711.215,-706.281 672.132,-601 664.784,-581.205 651.897,-583.165 641.132,-565 614.426,-519.936 594.258,-463.854 581.433,-422.144"/>
</g>
<!-- ApplicationRecord&#45;&gt;Rating -->
<g id="edge15" class="edge"><title>ApplicationRecord&#45;&gt;Rating</title>
<path fill="none" stroke="black" d="M428.834,-1164.22C412.689,-1156.43 392.261,-1147.54 373.132,-1142 320.908,-1126.88 170.134,-1143.88 131.132,-1106 50.2827,-1027.47 58.0997,-710.66 84.1323,-601 96.4979,-548.911 122.132,-495.276 146.545,-452.093"/>
</g>
<!-- AdminUser -->
<g id="node11" class="node"><title>AdminUser</title>
<path fill="none" stroke="black" d="M769.132,-879.5C769.132,-879.5 945.132,-879.5 945.132,-879.5 951.132,-879.5 957.132,-885.5 957.132,-891.5 957.132,-891.5 957.132,-1093.5 957.132,-1093.5 957.132,-1099.5 951.132,-1105.5 945.132,-1105.5 945.132,-1105.5 769.132,-1105.5 769.132,-1105.5 763.132,-1105.5 757.132,-1099.5 757.132,-1093.5 757.132,-1093.5 757.132,-891.5 757.132,-891.5 757.132,-885.5 763.132,-879.5 769.132,-879.5"/>
<text text-anchor="middle" x="857.132" y="-1090.3" font-family="Times,serif" font-size="14.00">AdminUser</text>
<polyline fill="none" stroke="black" points="757.132,-1082.5 957.132,-1082.5 "/>
<text text-anchor="start" x="765.132" y="-1067.3" font-family="Times,serif" font-size="14.00">id :INTEGER</text>
<text text-anchor="start" x="765.132" y="-1052.3" font-family="Times,serif" font-size="14.00">email :varchar</text>
<text text-anchor="start" x="765.132" y="-1037.3" font-family="Times,serif" font-size="14.00">encrypted_password :varchar</text>
<text text-anchor="start" x="765.132" y="-1022.3" font-family="Times,serif" font-size="14.00">reset_password_token :varchar</text>
<text text-anchor="start" x="765.132" y="-1007.3" font-family="Times,serif" font-size="14.00">reset_password_sent_at :datetime</text>
<text text-anchor="start" x="765.132" y="-992.3" font-family="Times,serif" font-size="14.00">remember_created_at :datetime</text>
<text text-anchor="start" x="765.132" y="-977.3" font-family="Times,serif" font-size="14.00">sign_in_count :integer</text>
<text text-anchor="start" x="765.132" y="-962.3" font-family="Times,serif" font-size="14.00">current_sign_in_at :datetime</text>
<text text-anchor="start" x="765.132" y="-947.3" font-family="Times,serif" font-size="14.00">last_sign_in_at :datetime</text>
<text text-anchor="start" x="765.132" y="-932.3" font-family="Times,serif" font-size="14.00">current_sign_in_ip :varchar</text>
<text text-anchor="start" x="765.132" y="-917.3" font-family="Times,serif" font-size="14.00">last_sign_in_ip :varchar</text>
<text text-anchor="start" x="765.132" y="-902.3" font-family="Times,serif" font-size="14.00">created_at :datetime</text>
<text text-anchor="start" x="765.132" y="-887.3" font-family="Times,serif" font-size="14.00">updated_at :datetime</text>
</g>
<!-- ApplicationRecord&#45;&gt;AdminUser -->
<g id="edge16" class="edge"><title>ApplicationRecord&#45;&gt;AdminUser</title>
<path fill="none" stroke="black" d="M527.146,-1172.41C587.152,-1163.43 675.358,-1144.52 743.132,-1106 747.846,-1103.32 752.504,-1100.4 757.085,-1097.28"/>
</g>
<!-- Institution -->
<g id="node12" class="node"><title>Institution</title>
<path fill="none" stroke="black" d="M531.632,-601.5C531.632,-601.5 650.632,-601.5 650.632,-601.5 656.632,-601.5 662.632,-607.5 662.632,-613.5 662.632,-613.5 662.632,-830.5 662.632,-830.5 662.632,-836.5 656.632,-842.5 650.632,-842.5 650.632,-842.5 531.632,-842.5 531.632,-842.5 525.632,-842.5 519.632,-836.5 519.632,-830.5 519.632,-830.5 519.632,-613.5 519.632,-613.5 519.632,-607.5 525.632,-601.5 531.632,-601.5"/>
<text text-anchor="middle" x="591.132" y="-827.3" font-family="Times,serif" font-size="14.00">Institution</text>
<polyline fill="none" stroke="black" points="519.632,-819.5 662.632,-819.5 "/>
<text text-anchor="start" x="527.632" y="-804.3" font-family="Times,serif" font-size="14.00">id :INTEGER</text>
<text text-anchor="start" x="527.632" y="-789.3" font-family="Times,serif" font-size="14.00">name :varchar</text>
<text text-anchor="start" x="527.632" y="-774.3" font-family="Times,serif" font-size="14.00">description :varchar</text>
<text text-anchor="start" x="527.632" y="-759.3" font-family="Times,serif" font-size="14.00">address :varchar</text>
<text text-anchor="start" x="527.632" y="-744.3" font-family="Times,serif" font-size="14.00">phoneNumber :varchar</text>
<text text-anchor="start" x="527.632" y="-729.3" font-family="Times,serif" font-size="14.00">images :varchar</text>
<text text-anchor="start" x="527.632" y="-714.3" font-family="Times,serif" font-size="14.00">kitchen :float</text>
<text text-anchor="start" x="527.632" y="-699.3" font-family="Times,serif" font-size="14.00">servise :float</text>
<text text-anchor="start" x="527.632" y="-684.3" font-family="Times,serif" font-size="14.00">cleannes :float</text>
<text text-anchor="start" x="527.632" y="-669.3" font-family="Times,serif" font-size="14.00">atmosphere :float</text>
<text text-anchor="start" x="527.632" y="-654.3" font-family="Times,serif" font-size="14.00">created_at :datetime</text>
<text text-anchor="start" x="527.632" y="-639.3" font-family="Times,serif" font-size="14.00">updated_at :datetime</text>
<text text-anchor="start" x="527.632" y="-624.3" font-family="Times,serif" font-size="14.00">latitude :float</text>
<text text-anchor="start" x="527.632" y="-609.3" font-family="Times,serif" font-size="14.00">longitude :float</text>
</g>
<!-- ApplicationRecord&#45;&gt;Institution -->
<g id="edge20" class="edge"><title>ApplicationRecord&#45;&gt;Institution</title>
<path fill="none" stroke="black" d="M460.821,-1162.67C466.388,-1106.88 484.854,-932.471 503.132,-879 507.658,-865.759 513.312,-852.353 519.558,-839.249"/>
</g>
<!-- Category&#45;&gt;Institution -->
<g id="edge11" class="edge"><title>Category&#45;&gt;Institution</title>
<path fill="none" stroke="#d96746" d="M580.781,-936.79C581.964,-912.36 583.413,-882.435 584.848,-852.799"/>
<polygon fill="#d96746" stroke="#d96746" points="580.777,-936.873 575.799,-946.644 580.535,-941.867 580.294,-946.861 580.294,-946.861 580.294,-946.861 580.535,-941.867 584.788,-947.079 580.777,-936.873 580.777,-936.873"/>
<polygon fill="#d96746" stroke="#d96746" points="584.85,-852.757 589.828,-842.986 585.092,-847.762 585.333,-842.768 585.333,-842.768 585.333,-842.768 585.092,-847.762 580.839,-842.551 584.85,-852.757 584.85,-852.757"/>
</g>
<!-- Rating&#45;&gt;RatingComment -->
<g id="edge14" class="edge"><title>Rating&#45;&gt;RatingComment</title>
<path fill="none" stroke="#a33a49" d="M204.132,-262.938C204.132,-220.183 204.132,-170.972 204.132,-131.952"/>
<ellipse fill="none" stroke="#a33a49" cx="204.132" cy="-266.94" rx="4" ry="4"/>
<polygon fill="#a33a49" stroke="#a33a49" points="204.132,-131.747 208.632,-121.747 204.132,-126.747 204.132,-121.747 204.132,-121.747 204.132,-121.747 204.132,-126.747 199.632,-121.747 204.132,-131.747 204.132,-131.747"/>
</g>
<!-- Institution&#45;&gt;WorkTime -->
<g id="edge17" class="edge"><title>Institution&#45;&gt;WorkTime</title>
<path fill="none" stroke="#f67702" d="M640.171,-593.606C642.839,-586.676 645.55,-579.633 648.286,-572.524"/>
<ellipse fill="none" stroke="#f67702" cx="638.713" cy="-597.393" rx="4.00001" ry="4.00001"/>
<ellipse fill="#f67702" stroke="#f67702" cx="649.828" cy="-568.518" rx="4.00001" ry="4.00001"/>
</g>
<!-- Institution&#45;&gt;InstitutionComment -->
<g id="edge19" class="edge"><title>Institution&#45;&gt;InstitutionComment</title>
<path fill="none" stroke="#17c431" d="M581.847,-592.976C577.927,-538.915 573.514,-478.068 570.207,-432.474"/>
<ellipse fill="none" stroke="#17c431" cx="582.149" cy="-597.137" rx="4" ry="4"/>
<polygon fill="#17c431" stroke="#17c431" points="570.2,-432.374 573.965,-422.074 569.838,-427.387 569.476,-422.4 569.476,-422.4 569.476,-422.4 569.838,-427.387 564.988,-422.725 570.2,-432.374 570.2,-432.374"/>
</g>
<!-- Institution&#45;&gt;Rating -->
<g id="edge18" class="edge"><title>Institution&#45;&gt;Rating</title>
<path fill="none" stroke="#9e872f" d="M514.277,-605.535C512.903,-604 511.521,-602.487 510.132,-601 440.176,-526.094 345.269,-455.97 279.79,-411.41"/>
<ellipse fill="none" stroke="#9e872f" cx="516.906" cy="-608.55" rx="4.00002" ry="4.00002"/>
<polygon fill="#9e872f" stroke="#9e872f" points="279.435,-411.169 273.675,-401.838 275.294,-408.367 271.153,-405.564 271.153,-405.564 271.153,-405.564 275.294,-408.367 268.631,-409.291 279.435,-411.169 279.435,-411.169"/>
</g>
</g>
</svg>
