<?xml version="1.0" encoding="UTF-8" standalone="no"?>
<!DOCTYPE svg PUBLIC "-//W3C//DTD SVG 1.1//EN"
 "http://www.w3.org/Graphics/SVG/1.1/DTD/svg11.dtd">
<!-- Generated by graphviz version 2.38.0 (20140413.2041)
 -->
<!-- Title: models_diagram Pages: 1 -->
<svg width="656pt" height="374pt"
 viewBox="0.00 0.00 656.00 374.00" xmlns="http://www.w3.org/2000/svg" xmlns:xlink="http://www.w3.org/1999/xlink">
<g id="graph0" class="graph" transform="scale(1 1) rotate(0) translate(4 370)">
<title>models_diagram</title>
<polygon fill="none" stroke="none" points="-4,4 -4,-370 651.995,-370 651.995,4 -4,4"/>
<!-- _diagram_info -->
<g id="node1" class="node"><title>_diagram_info</title>
<text text-anchor="start" x="8" y="-351.6" font-family="Times,serif" font-size="13.00">Models diagram</text>
<text text-anchor="start" x="8" y="-337.6" font-family="Times,serif" font-size="13.00">Date: May 30 2018 &#45; 20:12</text>
<text text-anchor="start" x="8" y="-323.6" font-family="Times,serif" font-size="13.00">Migration version: 20180530081635</text>
<text text-anchor="start" x="8" y="-309.6" font-family="Times,serif" font-size="13.00">Generated by RailRoady 1.5.3</text>
<text text-anchor="start" x="8" y="-295.6" font-family="Times,serif" font-size="13.00">http://railroady.prestonlee.com</text>
</g>
<!-- Vote -->
<g id="node2" class="node"><title>Vote</title>
<ellipse fill="none" stroke="black" cx="78" cy="-162" rx="27.8951" ry="18"/>
<text text-anchor="middle" x="78" y="-158.3" font-family="Times,serif" font-size="14.00">Vote</text>
</g>
<!-- User -->
<g id="node3" class="node"><title>User</title>
<ellipse fill="none" stroke="black" cx="191" cy="-234" rx="27.0966" ry="18"/>
<text text-anchor="middle" x="191" y="-230.3" font-family="Times,serif" font-size="14.00">User</text>
</g>
<!-- User&#45;&gt;Vote -->
<g id="edge6" class="edge"><title>User&#45;&gt;Vote</title>
<path fill="none" stroke="#dc9c20" d="M164.922,-216.846C147.457,-206.026 124.464,-191.783 106.514,-180.664"/>
<ellipse fill="none" stroke="#dc9c20" cx="168.431" cy="-219.019" rx="4.00002" ry="4.00002"/>
<polygon fill="#dc9c20" stroke="#dc9c20" points="106.144,-180.434 100.013,-171.343 101.893,-177.801 97.6428,-175.168 97.6428,-175.168 97.6428,-175.168 101.893,-177.801 95.273,-178.994 106.144,-180.434 106.144,-180.434"/>
</g>
<!-- RatingComment -->
<g id="node5" class="node"><title>RatingComment</title>
<ellipse fill="none" stroke="black" cx="110" cy="-18" rx="69.5877" ry="18"/>
<text text-anchor="middle" x="110" y="-14.3" font-family="Times,serif" font-size="14.00">RatingComment</text>
</g>
<!-- User&#45;&gt;RatingComment -->
<g id="edge4" class="edge"><title>User&#45;&gt;RatingComment</title>
<path fill="none" stroke="#100cc6" d="M188.55,-207.546C184.616,-174.773 174.973,-116.721 153,-72 148.011,-61.8457 140.761,-51.8929 133.632,-43.404"/>
<ellipse fill="none" stroke="#100cc6" cx="189.023" cy="-211.725" rx="4.00001" ry="4.00001"/>
<polygon fill="#100cc6" stroke="#100cc6" points="133.511,-43.267 130.291,-32.7846 130.211,-39.5109 126.911,-35.7549 126.911,-35.7549 126.911,-35.7549 130.211,-39.5109 123.53,-38.7252 133.511,-43.267 133.511,-43.267"/>
</g>
<!-- Userparam -->
<g id="node7" class="node"><title>Userparam</title>
<ellipse fill="none" stroke="black" cx="288" cy="-162" rx="50.0912" ry="18"/>
<text text-anchor="middle" x="288" y="-158.3" font-family="Times,serif" font-size="14.00">Userparam</text>
</g>
<!-- User&#45;&gt;Userparam -->
<g id="edge2" class="edge"><title>User&#45;&gt;Userparam</title>
<path fill="none" stroke="#892639" d="M215.667,-215.199C229.176,-205.45 245.969,-193.332 259.973,-183.226"/>
<ellipse fill="none" stroke="#892639" cx="212.035" cy="-217.82" rx="4.00002" ry="4.00002"/>
<ellipse fill="#892639" stroke="#892639" cx="263.353" cy="-180.787" rx="4.00002" ry="4.00002"/>
</g>
<!-- InstitutionComment -->
<g id="node9" class="node"><title>InstitutionComment</title>
<ellipse fill="none" stroke="black" cx="365" cy="-90" rx="82.5854" ry="18"/>
<text text-anchor="middle" x="365" y="-86.3" font-family="Times,serif" font-size="14.00">InstitutionComment</text>
</g>
<!-- User&#45;&gt;InstitutionComment -->
<g id="edge5" class="edge"><title>User&#45;&gt;InstitutionComment</title>
<path fill="none" stroke="#0cedb7" d="M196.06,-208.032C201.246,-188.297 211.154,-161.285 229,-144 247.638,-125.948 273.123,-113.858 296.997,-105.848"/>
<ellipse fill="none" stroke="#0cedb7" cx="195.065" cy="-212.108" rx="4.00001" ry="4.00001"/>
<polygon fill="#0cedb7" stroke="#0cedb7" points="297.216,-105.779 308.107,-107.056 301.984,-104.272 306.751,-102.765 306.751,-102.765 306.751,-102.765 301.984,-104.272 305.395,-98.4742 297.216,-105.779 297.216,-105.779"/>
</g>
<!-- Rating -->
<g id="node10" class="node"><title>Rating</title>
<ellipse fill="none" stroke="black" cx="110" cy="-90" rx="34.394" ry="18"/>
<text text-anchor="middle" x="110" y="-86.3" font-family="Times,serif" font-size="14.00">Rating</text>
</g>
<!-- User&#45;&gt;Rating -->
<g id="edge3" class="edge"><title>User&#45;&gt;Rating</title>
<path fill="none" stroke="#192852" d="M176.183,-209.901C170.382,-200.679 163.752,-189.913 158,-180 145.809,-158.989 132.773,-134.689 123.367,-116.794"/>
<ellipse fill="none" stroke="#192852" cx="178.487" cy="-213.541" rx="4.00002" ry="4.00002"/>
<polygon fill="#192852" stroke="#192852" points="123.179,-116.434 122.531,-105.487 120.861,-112.004 118.544,-107.573 118.544,-107.573 118.544,-107.573 120.861,-112.004 114.556,-109.659 123.179,-116.434 123.179,-116.434"/>
</g>
<!-- WorkTime -->
<g id="node4" class="node"><title>WorkTime</title>
<ellipse fill="none" stroke="black" cx="516" cy="-90" rx="50.0912" ry="18"/>
<text text-anchor="middle" x="516" y="-86.3" font-family="Times,serif" font-size="14.00">WorkTime</text>
</g>
<!-- ApplicationRecord -->
<g id="node6" class="node"><title>ApplicationRecord</title>
<ellipse fill="none" stroke="black" cx="309" cy="-327" rx="77.1866" ry="18"/>
<text text-anchor="middle" x="309" y="-323.3" font-family="Times,serif" font-size="14.00">ApplicationRecord</text>
</g>
<!-- ApplicationRecord&#45;&gt;Vote -->
<g id="edge1" class="edge"><title>ApplicationRecord&#45;&gt;Vote</title>
<path fill="none" stroke="black" d="M275.239,-310.665C233.099,-291.387 165.28,-259.86 155,-252 127.245,-230.78 102.213,-198.198 88.6498,-178.901"/>
</g>
<!-- ApplicationRecord&#45;&gt;User -->
<g id="edge7" class="edge"><title>ApplicationRecord&#45;&gt;User</title>
<path fill="none" stroke="black" d="M287.631,-309.521C264.784,-291.902 229.017,-264.318 208.005,-248.114"/>
</g>
<!-- ApplicationRecord&#45;&gt;WorkTime -->
<g id="edge8" class="edge"><title>ApplicationRecord&#45;&gt;WorkTime</title>
<path fill="none" stroke="black" d="M364.802,-314.435C401.223,-304.058 447.037,-285.172 475,-252 510.694,-209.658 515.909,-140.266 516.286,-108.217"/>
</g>
<!-- ApplicationRecord&#45;&gt;RatingComment -->
<g id="edge9" class="edge"><title>ApplicationRecord&#45;&gt;RatingComment</title>
<path fill="none" stroke="black" d="M277.74,-310.366C261.682,-302.806 241.621,-294.077 223,-288 151.645,-264.714 114.146,-301.814 58,-252 21.1451,-219.302 22.2196,-192.075 33,-144 42.7039,-100.725 74.7887,-58.53 94.3473,-35.9389"/>
</g>
<!-- ApplicationRecord&#45;&gt;Userparam -->
<g id="edge10" class="edge"><title>ApplicationRecord&#45;&gt;Userparam</title>
<path fill="none" stroke="black" d="M306.792,-308.864C302.77,-277.64 294.289,-211.812 290.241,-180.397"/>
</g>
<!-- Category -->
<g id="node8" class="node"><title>Category</title>
<ellipse fill="none" stroke="black" cx="400" cy="-234" rx="42.7926" ry="18"/>
<text text-anchor="middle" x="400" y="-230.3" font-family="Times,serif" font-size="14.00">Category</text>
</g>
<!-- ApplicationRecord&#45;&gt;Category -->
<g id="edge12" class="edge"><title>ApplicationRecord&#45;&gt;Category</title>
<path fill="none" stroke="black" d="M325.691,-309.309C342.315,-292.685 367.657,-267.343 384.025,-250.975"/>
</g>
<!-- ApplicationRecord&#45;&gt;InstitutionComment -->
<g id="edge13" class="edge"><title>ApplicationRecord&#45;&gt;InstitutionComment</title>
<path fill="none" stroke="black" d="M359.406,-313.335C391.375,-302.538 430.61,-283.597 452,-252 478.964,-212.168 483.262,-185.533 459,-144 448.416,-125.882 429.101,-113.473 410.72,-105.245"/>
</g>
<!-- ApplicationRecord&#45;&gt;Rating -->
<g id="edge15" class="edge"><title>ApplicationRecord&#45;&gt;Rating</title>
<path fill="none" stroke="black" d="M276.234,-310.626C260.318,-303.389 240.823,-294.862 223,-288 135.223,-254.204 77.2941,-266.774 41,-180 34.8261,-165.239 33.9269,-158.352 41,-144 50.1481,-125.438 69.266,-111.564 85.0629,-102.677"/>
</g>
<!-- AdminUser -->
<g id="node11" class="node"><title>AdminUser</title>
<ellipse fill="none" stroke="black" cx="596" cy="-234" rx="51.9908" ry="18"/>
<text text-anchor="middle" x="596" y="-230.3" font-family="Times,serif" font-size="14.00">AdminUser</text>
</g>
<!-- ApplicationRecord&#45;&gt;AdminUser -->
<g id="edge16" class="edge"><title>ApplicationRecord&#45;&gt;AdminUser</title>
<path fill="none" stroke="black" d="M352.902,-312.08C409.274,-294.206 506.11,-263.502 558.951,-246.747"/>
</g>
<!-- Institution -->
<g id="node12" class="node"><title>Institution</title>
<ellipse fill="none" stroke="black" cx="403" cy="-162" rx="46.5926" ry="18"/>
<text text-anchor="middle" x="403" y="-158.3" font-family="Times,serif" font-size="14.00">Institution</text>
</g>
<!-- ApplicationRecord&#45;&gt;Institution -->
<g id="edge20" class="edge"><title>ApplicationRecord&#45;&gt;Institution</title>
<path fill="none" stroke="black" d="M312.475,-308.884C317.623,-286.266 328.796,-245.808 348,-216 357.336,-201.508 371.373,-188.067 382.929,-178.347"/>
</g>
<!-- Category&#45;&gt;Institution -->
<g id="edge11" class="edge"><title>Category&#45;&gt;Institution</title>
<path fill="none" stroke="#fbaa37" d="M401.171,-205.665C401.391,-200.552 401.62,-195.21 401.838,-190.104"/>
<polygon fill="#fbaa37" stroke="#fbaa37" points="401.17,-205.706 396.246,-215.504 400.956,-210.701 400.742,-215.697 400.742,-215.697 400.742,-215.697 400.956,-210.701 405.237,-215.889 401.17,-205.706 401.17,-205.706"/>
<polygon fill="#fbaa37" stroke="#fbaa37" points="401.839,-190.095 406.763,-180.297 402.053,-185.1 402.267,-180.104 402.267,-180.104 402.267,-180.104 402.053,-185.1 397.771,-179.912 401.839,-190.095 401.839,-190.095"/>
</g>
<!-- Rating&#45;&gt;RatingComment -->
<g id="edge14" class="edge"><title>Rating&#45;&gt;RatingComment</title>
<path fill="none" stroke="#d4fa0d" d="M110,-63.6398C110,-58.0629 110,-52.1319 110,-46.4761"/>
<ellipse fill="none" stroke="#d4fa0d" cx="110" cy="-67.6966" rx="4" ry="4"/>
<polygon fill="#d4fa0d" stroke="#d4fa0d" points="110,-46.1043 114.5,-36.1043 110,-41.1043 110,-36.1043 110,-36.1043 110,-36.1043 110,-41.1043 105.5,-36.1044 110,-46.1043 110,-46.1043"/>
</g>
<!-- Institution&#45;&gt;WorkTime -->
<g id="edge17" class="edge"><title>Institution&#45;&gt;WorkTime</title>
<path fill="none" stroke="#e530ae" d="M433.716,-141.973C449.602,-132.132 468.95,-120.146 484.893,-110.27"/>
<ellipse fill="none" stroke="#e530ae" cx="430.089" cy="-144.219" rx="4.00002" ry="4.00002"/>
<ellipse fill="#e530ae" stroke="#e530ae" cx="488.553" cy="-108.003" rx="4.00002" ry="4.00002"/>
</g>
<!-- Institution&#45;&gt;InstitutionComment -->
<g id="edge19" class="edge"><title>Institution&#45;&gt;InstitutionComment</title>
<path fill="none" stroke="#679ddd" d="M389.877,-136.827C386.451,-130.515 382.741,-123.681 379.259,-117.266"/>
<ellipse fill="none" stroke="#679ddd" cx="391.893" cy="-140.54" rx="4.00002" ry="4.00002"/>
<polygon fill="#679ddd" stroke="#679ddd" points="379.149,-117.064 378.333,-106.128 376.764,-112.67 374.378,-108.275 374.378,-108.275 374.378,-108.275 376.764,-112.67 370.423,-110.422 379.149,-117.064 379.149,-117.064"/>
</g>
<!-- Institution&#45;&gt;Rating -->
<g id="edge18" class="edge"><title>Institution&#45;&gt;Rating</title>
<path fill="none" stroke="#20c0c7" d="M360.022,-147.598C355.636,-146.337 351.237,-145.115 347,-144 279.005,-126.103 199.026,-109.033 151.53,-99.3063"/>
<ellipse fill="none" stroke="#20c0c7" cx="364.026" cy="-148.771" rx="4.00001" ry="4.00001"/>
<polygon fill="#20c0c7" stroke="#20c0c7" points="151.416,-99.2831 142.515,-92.8771 146.516,-98.2848 141.617,-97.2865 141.617,-97.2865 141.617,-97.2865 146.516,-98.2848 140.718,-101.696 151.416,-99.2831 151.416,-99.2831"/>
</g>
</g>
</svg>
